<svg xmlns="http://www.w3.org/2000/svg" width="147.821" height="147.821" viewBox="0 0 147.821 147.821">
  <defs>
    <style>
      .cls-1 {
        fill: #0047e6;
      }
    </style>
  </defs>
  <path id="Icon_awesome-page4" data-name="Icon awesome-page4" class="cls-1" d="M73.91,148.383A73.91,73.91,0,1,1,92,2.8L12.606,115h61.3Zm0-42.8V41.928L29.385,105.587ZM102.521,115v27.627A74.1,74.1,0,0,0,135.721,115h-33.2Zm17.107-41.187-6.318,2.5,6.318,2.474Zm-6.05,16.242c-2,0-2.384,1.878-2.384,3.845V96.2h4.828v-2.98c0-1.758-.685-3.159-2.444-3.159Zm34.243-15.587a73.362,73.362,0,0,1-6.855,31.114H102.521V6.314A73.917,73.917,0,0,1,147.821,74.473Zm-40.412-33.5h20.325V26.789h-4.143V36.5h-4.143V27.683h-4.143V36.5h-3.785V26.789h-4.143V40.975ZM127.7,96.2h-7.9V92.921c0-4.59-1.669-7.51-6.229-7.51-4.59,0-6.169,3.159-6.169,7.719v7.54h20.325V96.2Zm0-30.7-20.325,8.851v3.7L127.7,86.841V81.894l-4.292-1.7V72.3l4.292-1.758Zm-1.431-20.415h-10.61v7.927h4.143V49.379h3.278c2.563,4.709.387,10.52-5.543,10.52-6.706,0-8.434-7.54-4.619-11.236L109.465,45.5c-4.828,5.215-3.636,19.044,8.076,19.044,10.133,0,13.322-10.7,8.732-19.461Z" transform="translate(0 -0.563)"/>
</svg>
